<?xml version="1.0" standalone="no"?>
<!DOCTYPE svg PUBLIC "-//W3C//DTD SVG 20010904//EN"
 "http://www.w3.org/TR/2001/REC-SVG-20010904/DTD/svg10.dtd">
<svg version="1.0" xmlns="http://www.w3.org/2000/svg"
 width="289.000000pt" height="285.000000pt" viewBox="0 0 289.000000 285.000000"
 preserveAspectRatio="xMidYMid meet">

<g transform="translate(0.000000,285.000000) scale(0.100000,-0.100000)"
fill="#000000" stroke="none">
<path d="M1315 2644 c-344 -61 -647 -289 -805 -604 -130 -258 -149 -600 -50
-872 164 -449 580 -738 1063 -738 59 0 107 -3 107 -7 0 -5 -16 -18 -35 -31
-79 -51 -67 -100 50 -204 55 -50 84 -68 104 -68 15 0 30 3 33 6 3 3 -9 27 -27
55 -35 51 -52 118 -42 169 10 47 84 113 158 139 109 39 223 101 311 167 131
97 199 176 315 362 47 75 131 333 120 365 -2 7 -7 -8 -12 -33 -9 -56 -47 -159
-82 -225 -125 -236 -341 -409 -595 -477 -73 -20 -79 -20 -96 -5 -26 23 -47 21
-90 -8 -34 -23 -38 -24 -49 -8 -30 39 0 93 51 93 17 0 37 -5 43 -11 7 -7 21
-5 47 7 28 14 36 24 36 43 0 30 -32 105 -49 115 -6 4 -11 14 -11 23 0 16 145
245 225 355 l43 60 -76 68 c-43 37 -99 89 -126 114 -27 25 -51 46 -52 46 -2 0
4 -16 12 -36 8 -20 13 -38 11 -40 -2 -3 -35 25 -73 60 l-69 65 -23 -27 c-20
-24 -79 -119 -124 -201 -15 -26 -23 -31 -56 -31 -47 0 -124 -25 -174 -57 -45
-27 -44 -30 -26 94 11 75 10 84 -6 102 -14 15 -16 26 -9 47 14 43 35 51 81 30
l41 -18 26 26 c14 15 37 34 51 42 22 15 24 21 18 64 -5 41 -3 50 15 66 11 11
30 27 42 38 18 15 25 16 46 7 14 -7 27 -10 29 -8 3 2 -6 28 -19 58 -36 81 -41
109 -21 109 15 0 15 2 -2 21 -21 23 -152 89 -177 89 -10 0 -14 5 -11 15 15 38
-206 1 -260 -44 -31 -26 -68 -103 -73 -154 -4 -46 -1 -60 31 -121 43 -82 46
-106 13 -106 -30 0 -61 -44 -126 -175 -58 -117 -70 -170 -78 -324 l-6 -114
-20 24 c-32 39 -104 197 -129 284 -31 111 -32 351 0 467 90 333 312 572 628
677 338 113 704 28 958 -224 79 -78 122 -135 173 -230 44 -81 42 -62 -3 28
-77 153 -205 302 -351 409 -70 52 -217 126 -310 157 -150 50 -373 64 -538 35z
m175 -1413 c0 -6 -10 -26 -21 -46 -21 -34 -24 -36 -58 -30 -45 8 -47 11 -30
31 32 39 109 70 109 45z"/>
</g>
</svg>
